<svg width="32" height="24" viewBox="0 0 32 24" fill="none" xmlns="http://www.w3.org/2000/svg">
<rect width="32" height="24" rx="8" fill="#FFD600"/>
<path d="M22.3838 8.40942L19.5913 5.6163C19.4752 5.50017 19.3374 5.40805 19.1857 5.3452C19.034 5.28235 18.8714 5.25 18.7072 5.25C18.543 5.25 18.3804 5.28235 18.2287 5.3452C18.077 5.40805 17.9392 5.50017 17.8231 5.6163L10.1163 13.3238C9.99976 13.4395 9.90739 13.5772 9.84452 13.7289C9.78165 13.8807 9.74953 14.0433 9.75001 14.2075V17.0007C9.75001 17.3322 9.8817 17.6501 10.1161 17.8846C10.3505 18.119 10.6685 18.2507 11 18.2507H13.7931C13.9573 18.2511 14.12 18.219 14.2717 18.1561C14.4234 18.0932 14.5611 18.0009 14.6769 17.8844L22.3838 10.1769C22.6181 9.94251 22.7497 9.62463 22.7497 9.29317C22.7497 8.96172 22.6181 8.64383 22.3838 8.40942ZM13.6875 16.7507H11.25V14.3132L16.5 9.06317L18.9375 11.5007L13.6875 16.7507ZM20 10.4382L17.5625 8.00067L18.7088 6.85442L21.1463 9.29192L20 10.4382Z" fill="#212529"/>
</svg>
